<?xml version="1.0" encoding="utf-8"?>
<!-- Generator: Adobe Illustrator 25.0.1, SVG Export Plug-In . SVG Version: 6.00 Build 0)  -->
<svg version="1.1" xmlns="http://www.w3.org/2000/svg" xmlns:xlink="http://www.w3.org/1999/xlink" x="0px" y="0px"
	 viewBox="0 0 419 77" style="enable-background:new 0 0 419 77;" xml:space="preserve">
<style type="text/css">
	.st0{fill:#00ADEF;}
	.st1{fill:#98C21F;}
	.st2{fill:#423A34;}
	.st3{fill:#FFFFFF;}
</style>
<g id="Layer_5">
	<g>
		<path class="st0" d="M172.31,30.05c0.24,0.85-0.64,1.87-0.86,2.79c0.34,0.78,0.08,1.18-0.49,2.12c-1.51,2.48-2.14,5.7-4.21,8.5
			c0.08-1.71,1.07-3.51,2.15-5.04c-1.84,1.31-2.82,3.75-2.49,5.5c0.26,0.08,0.07-0.32,0.34-0.46c0.22,0.07-0.01,0.58,0.31,0.22
			c0.13,0.17-0.28,0.53-0.4,0.54c-0.24,0.96,0.32,1.67,0.67,2.49c0.06,0.12-0.18,0.25-0.15,0.36c0.15,0.61,1.07,1.23,1.94,1.88
			c0.42-0.12,0.89,0.14,1.35,0.27c-1.29,0.65-2.58,1.37-4.1,0.57c-0.3-0.11,0.08-0.33,0-0.48c-1.33-0.81-1.37-1.83-2.15-2.73
			c0.27-0.26-0.17-0.58,0.24-0.65c-0.29-1.25-0.15-2.57-0.27-3.84c0.74-1.07,0.77-2.03,1.17-3.05c0.08-0.27-0.29-0.04-0.26-0.3
			c1.03-2.53,1.58-4.87,2.58-7.56c-0.63,0-1.01,0.38-1.57,0.52c-0.09,0.02-0.37-0.18-0.5-0.13c-1.01,0.42-1.55,1.9-2.59,2.25
			c0.21-0.69,1.05-1.15,1.49-1.87c-0.93,0.15-1.66,1.63-2.54,2.17c0.53-1.37,1.88-2.43,2.9-3.79c-0.26-0.16-0.44,0.1-0.65,0.23
			c0.14-0.74,0.93-1.09,1.32-1.63c-1.77,0.83-2.9,3.01-4.68,5.09c0.29-0.03,0.5-0.62,0.75-0.87c0.34,1.17-1.9,2.37-1.9,3.57
			c0.47-0.19,0.5-1.22,1.13-1.06c-0.39,0.47-0.57,0.62-0.71,1.13c-1.09,0.19-0.87,1.77-1.52,2.55c0.09,0.21-0.04,0.46,0.11,0.67
			c-1.75,2.96-2.91,6.18-5.43,9.02c-0.14-0.13,0.14-0.34-0.01-0.48c-0.53-0.32-0.85,0.67-1.33,0.69c-0.33-0.22-0.11-0.53-0.12-0.8
			c-1.57,0.1-2.04-1.71-2.2-2.65c0.33-0.4,0.48-0.98,0.52-1.51c3.75-4.67,5.49-9.24,7.76-13.82c-0.3,0.14-0.66-0.1-0.96,0.01
			c0.61-0.63,1.15-0.73,1.57-1.34c0.75-1.06,0.55-2.9,1.92-3.91c0.6,0.36,1.17,0.51,1.97,1.19c0.08,0.6,0.06,1.21-0.05,1.84
			c0.17,0.08,0.39,0.44,0.5,0.13c0.08,0.17,0,0.36-0.18,0.58c0.23,0,0.39-0.44,0.61-0.5c0.32,0.09-0.12,0.29,0.2,0.38
			c0.26-0.05,0.52-0.19,0.76-0.39c0.26,0.33,0.43,0.12,0.66,0.24c0.67-0.8,1.72-1.48,2.85-1.47c0.25-0.28,0.16-0.6,0.53-0.56
			c0.32,0.11,0.18,0.29,0,0.48c0.4,0.06,0.48-0.2,0.53-0.56c0.66,0.72,1.21,0.38,1.62,0.7c0.28,0.08,0.04-0.29,0.3-0.25
			c0.2,0.45,0.41,0.89,1.09,1.26c-0.37,0.42,0.08,0.71-0.37,1.15c0.16,0.11,0.31,0.22,0.46,0.33c-0.12,0.29-0.17,0.57-0.14,0.84
			C172,30.68,172.13,30.2,172.31,30.05"/>
		<path class="st0" d="M170.83,36.28c0.08,0.17-0.01,0.37-0.18,0.58C170.31,36.72,170.75,36.47,170.83,36.28"/>
		<path class="st0" d="M168.9,38.42c-1.08,1.53-2.07,3.32-2.15,5.04c-0.27,0.14-0.08,0.54-0.34,0.46
			C166.08,42.17,167.06,39.73,168.9,38.42"/>
		<path class="st0" d="M149.48,37.09c0.19-0.44,1.04-0.98,0.61-1.32C149.95,36.2,149.46,36.68,149.48,37.09 M151.9,34.6
			c0.44-0.44,0.85-1.45,0.78-2.03C152.41,33.25,151.95,33.96,151.9,34.6 M154.52,29.9c0.1,1.02-1.64,2.23-1.53,3.38
			c0.29,0.23,0.44-0.42,0.68-0.45c-0.56,0.8-0.87,2.13-1.71,2.65c-0.79,1.98-1.9,3.94-3.67,5.82c-0.15,0.25,0.13,0.43,0.1,0.66
			c-0.41,0.86-0.98,0.71-1.42,1.45c-0.31-0.26,0.29-0.29,0.13-0.5c-0.74,0.64-1.4,1.86-2.11,2.72c0.58-0.12,1.01-1.12,1.64-0.94
			c-0.49,1.13-2.19,2.03-3.16,3.01c-0.07,0.4-0.25,0.78-0.65,1.06c-0.22-0.24-0.07-0.54,0.14-0.84c-0.68,0.6-1.43,0.75-2.13,1.29
			c-0.14-0.14,0.14-0.34-0.01-0.47c-1.37,0.71-2.96-0.15-4.34-0.55c-1.73-2.96-1.65-6.91,1.27-10.15c0.56-2.15,2.04-4.36,3.78-6.45
			c1.8-2.17,3.06-5.2,5.43-5.96c1.34,1,2.38,2.03,2.37,3.24c-2.24,1.63-4.08,3.61-6.09,6.2c0.46,0.29,1.31-0.67,1.82-1.51
			c0.12,1.06-2.3,1.96-2.02,3.24c-0.74,0.65-1,1.12-1.6,2.02c0.23,0.17,0.31-0.65,0.57-0.29c-0.83,1.71-1.99,2.65-2.82,4.32
			c0.37-0.13,0.65-0.83,0.98-1.17c-0.06,0.94-0.88,2-1.11,2.97c0.79-0.42,1.49-0.72,2.28-1.17c1.11-0.64,1.84-1.75,2.96-2.57
			c0.8-0.6,2.06-0.84,2.56-2.04c0.24-0.22,0.52-0.2,0.76-0.39c2.13-2.43,4.02-5.09,5.01-7.8c0.48-0.12,0.58-0.48,1.21-1.01
			c-0.25-0.28-0.36,0.31-0.61,0.03c0.11-0.5,0.66-0.7,1-1.04c0.53,0.25-0.65,1.32-0.53,1.86C154.04,30.65,154.22,29.89,154.52,29.9"
			/>
		<path class="st0" d="M152.7,37.07c0.07,0.43-0.22,0.8-0.6,0.98C152.04,37.76,152.55,37.39,152.7,37.07"/>
		<path class="st0" d="M148.08,43.38c0.09,0.47-0.43,0.57-0.52,1.04C147.25,44.14,147.95,43.71,148.08,43.38"/>
		<path class="st0" d="M147.09,44.07c0.33,0.12-0.14,0.62-0.3,0.25C146.88,44.21,146.96,44.01,147.09,44.07"/>
		<path class="st0" d="M137.99,18.65c1.45,0.03,2.82,1.75,2.91,2.82c-0.96,0.61-2,0.89-2.3,2.34
			C137.76,22.18,137.87,20.42,137.99,18.65"/>
		<path class="st0" d="M126.4,45.13c0.74-1.2,2.03-2.35,2.17-3.61C127.71,42.62,126.69,43.82,126.4,45.13 M132.88,31.44
			c0.42,0.61,0.05,1.36,0.32,2c-0.14,0.32-0.3,0.92-0.66,1.06c0.25,0.29,0.39-0.12,0.66,0.24c-0.38,0.7-0.99,1.43-0.78,2.03
			c-2.44,3.34-5.33,7.66-6.7,11.4c-0.42-0.16-0.84-0.36-1.15,0.11c-0.48-0.19,0.04-0.55-0.4-0.75c-0.42-0.2-0.73,0.25-1.11,0.38
			c-0.5-0.72-0.69-1.48-1.11-2.21c0.79-2.42,2.28-4.94,3.29-7.39c0.62-1.09,1.4-2,1.93-2.96c0.15-0.28,0.13-0.6,0.28-0.86
			c0.62-1.09,1.48-1.98,1.91-3.09c0.26-0.67,0.09-1.54,1.03-1.73C131.44,30.1,132.04,30.65,132.88,31.44"/>
		<path class="st1" d="M364.99,18.65c1.45,0.03,2.82,1.75,2.91,2.82c-0.96,0.61-2,0.89-2.3,2.34
			C364.76,22.18,364.87,20.42,364.99,18.65"/>
		<path class="st1" d="M353.4,45.13c0.74-1.2,2.03-2.35,2.17-3.61C354.71,42.62,353.69,43.82,353.4,45.13 M359.88,31.44
			c0.42,0.61,0.05,1.36,0.32,2c-0.14,0.32-0.3,0.92-0.66,1.06c0.25,0.29,0.39-0.12,0.66,0.24c-0.38,0.7-0.99,1.43-0.78,2.03
			c-2.44,3.34-5.33,7.66-6.7,11.4c-0.42-0.16-0.84-0.36-1.15,0.11c-0.48-0.19,0.04-0.55-0.4-0.75c-0.42-0.2-0.73,0.25-1.11,0.38
			c-0.5-0.72-0.69-1.48-1.11-2.21c0.79-2.42,2.28-4.94,3.29-7.39c0.62-1.09,1.4-2,1.93-2.96c0.15-0.28,0.13-0.6,0.28-0.86
			c0.62-1.09,1.48-1.98,1.91-3.09c0.26-0.67,0.09-1.54,1.03-1.73C358.44,30.1,359.04,30.65,359.88,31.44"/>
		<path class="st0" d="M96.74,37.57c0.17-0.25,0.71-0.37,0.64-0.71C97.18,36.91,96.67,37.23,96.74,37.57 M105.6,28.55
			c-0.95,0.34-1.96,0.29-2.78,1.52c-0.61,0.2-1.17,0.81-1.34,1.51c-1.92,1.35-2.68,3.26-4.07,5.07c0.17-0.09,0.31-0.36,0.5-0.35
			c-0.25,1.3-1.84,2.42-2.1,3.67c-0.06,0.08-0.1,0.22,0.02,0.13c0.15-0.37,0.22-0.43,0.55-0.42c0.03,0.59-0.83,1.31-0.66,1.88
			C99.6,38.39,103.28,33.07,105.6,28.55 M107.69,39.13c0.11-0.22-0.08-0.4-0.16-0.59c-0.28,0.18,0.21,0.24-0.07,0.42
			C107.53,39.01,107.61,39.07,107.69,39.13 M117.02,32.22c0.73-1.23,2.09-1.72,2.11-2.72C118.46,30.33,117.42,31.16,117.02,32.22
			 M132.95,24.07c-0.38,0.17-0.29,0.68-0.7,0.79c-0.24-0.6,0.1-1.29-0.83-1.78c-2.5,0-4.5,3.12-6.92,4.42
			c-1.05,0.57-2.52,0.61-3.53,2.39c0.66-0.24,1.04-1.3,1.86-1.25c-1.26,1.98-2.99,4.05-4.68,5.57c0.46-1.21,1.55-2.04,2.22-3.34
			c-1.73,1.67-3.4,3.64-5.02,6.03c0.4-0.25,0.76-0.69,1.14-1.06c-0.04,1.02-1.21,2.23-1.6,3.32c0.42,0.02,0.7-0.74,1.05-1.12
			c-0.05,0.29-0.24,0.99-0.54,0.9c-0.83,1.72-0.62,3.28-1.14,4.95c0.14,0.03,0.26-0.06,0.38-0.19c0.14,0.75-0.91,1.31-1.1,2.15
			c-0.18,1.44-0.14,3.45-1.87,4.18c-0.46-0.16-0.89-0.11-1.26,0.27c-0.3-0.29-0.55-0.28-0.77-0.09c-1.13-0.55-0.87-1.32-1.67-1.92
			c0.05-0.65-0.21-1.24-0.03-1.9c-1.37-0.29-2.39-1.32-3.1-2.24c0.09-0.15,0.21-0.1,0.3-0.25c-0.67-0.69-0.55-1.5-1.11-2.21
			c0.17-1.11-0.04-2.17-0.1-3.25c0.11-0.32-0.18,0.19-0.29-0.09c-0.02-0.25-0.14-0.48,0.22-0.79c-0.27,0.13-0.32-0.04-0.39-0.28
			c-1.16,1.38-1.2,2.59-2.45,3.99c-0.06,0.12,0.21,0.19,0.12,0.32c-1.57,2.98-3.9,5.07-6.28,6.3c-0.3-0.04,0.39-0.1,0.48-0.48
			c-0.53-0.41-1.63-0.01-1.78-0.81c-0.28-0.22-0.49,0.08-0.77-0.09c-0.43-0.93-1.15-1.82-1.27-2.8c0.16-1.48,0.32-2.96,0.53-4.44
			c1.61-2.44,2.24-5.17,4.13-7.73c0.56-0.77,1.13-1.85,1.84-2.67c1.3-1.51,2.9-3.44,4.66-3.93c1.13,0.83,2.38,1.63,3.14,2.51
			c0.16,0.23,0.15,0.48,0.05,0.74c0.32,0.02,0.52-0.77,0.91-0.28c0.07-0.19,0.52-0.44,0.18-0.58c0.14-0.27,0.41,0.25,0.53-0.08
			c0.31,0.51,0.64,0.35,1.01,0.73c0.88,0.9,0.27,1.96,0.62,3.03c-0.32,0.39-0.46,0.75-0.44,1.1c0.33,0.13,0.16-0.55,0.42-0.41
			c0.4,0.71-0.47,1.62-0.04,2.32c-0.18,0.26-0.15,0.48-0.43,0.75c-0.05,0.12,0.15,0.2,0.26,0.3c-0.74,1.09-0.51,2.03-1.22,3.12
			c0.49,0.15,0.33-0.66,0.68-0.92c-0.12,1.97-1.24,4.1-0.83,5.99c0.49,0.36,0.98,0.71,1.47,1.06c0.54-0.1,0.82-1.11,0.92-1.57
			c1.88-4.72,5.53-9.39,7.56-14.2c-1.27,0.37-2.48,1.06-3.98-0.06c-0.07-0.58-0.95-1.04-0.94-1.63c2.68-1.43,5.34-2.96,8.15-3.52
			c1.81-3.41,3.67-7.03,5.56-10.34c2.68,1.72-0.27,4.31,0.05,6.4c-0.73,0.75-0.5,1.35-0.51,1.99c0.22,0.12,0.4-0.09,0.65,0.24
			c0.26-0.25,0.58-0.01,0.96-0.02c0.11,0,0.25-0.2,0.38-0.19c0.11,0,0.21,0.22,0.31,0.23c0.94,0.02,2.47-0.17,3.42,0.35
			C132.39,22.46,132.91,23.3,132.95,24.07"/>
		<path class="st1" d="M213.1,74.76c0.11-0.22-0.08-0.4-0.16-0.59c-0.28,0.18,0.21,0.24-0.07,0.42
			C212.95,74.65,213.02,74.7,213.1,74.76"/>
		<path class="st0" d="M118.58,35.58c-0.47,0.78-0.77,1.53-1.48,2.34c-0.02-0.13-0.04-0.27-0.06-0.4
			C117.52,36.97,118.25,35.67,118.58,35.58"/>
		<path class="st0" d="M86.58,31.04c0.5-0.88,1.43-1.37,1.71-2.17C87.73,29.13,86.67,30.67,86.58,31.04 M89.09,28.27
			c0.2-0.33,0.53-0.34,0.37-0.67C89.37,27.81,88.96,28.08,89.09,28.27 M90.74,25.69c-0.32-0.27-0.49,0.36-0.76,0.39
			C90.29,26.3,90.48,25.81,90.74,25.69 M99.24,22.66c-0.03,0.34-0.2,0.84-0.52,1.04c-1.68-0.76-2.98,0.85-4.43,1.51
			c-0.11,0.2-0.09,0.38-0.32,0.6c-0.29,0.17,0.12-0.33,0.2-0.44c-0.18-0.28-0.24,0.21-0.42-0.07c-1.31,1.3-2.75,1.7-4.02,3.22
			c1.35-0.73,2.64-1.83,3.94-2.8c-0.24,0.96-1.66,1.5-2.4,2.15c-1.65,2.51-4.38,5.01-6.23,7.86c0.05-0.36,0.01-0.6-0.43-0.55
			c0.12-0.31,0.36-0.65,0.33-0.94c-0.37,0.76-1.89,2.29-1.22,3.12c0.2-0.06,0.41-0.7,0.73-1c-0.09,0.78-1.23,1.88-1.67,2.92
			c0.42,0.04,0.52-0.55,0.75-0.87c-0.24,1.52-1.13,3.13-1.79,4.71c-0.21,0.17,0.41,0.21,0.2,0.38c-0.41,1.29-0.98,2.61-1.58,3.93
			c-0.64-0.29-0.4-0.71-0.51-1.08c-0.45,0.36-0.84,1.07-1.37,0.9c-0.06-0.17-0.03-0.36-0.08-0.54c-0.23-0.32-0.34,0.14-0.58-0.18
			c-0.42-0.46-0.53-0.96-0.98-1.41c0.37-0.8-0.46-1.3-0.18-2.02c0.08-0.21,0.36-0.38,0.45-0.62c0.26-0.63,0.42-1.33,0.72-1.95
			c1.59-3.26,2.18-6.99,3.73-10.26c0.1-0.63-0.08-1.21-0.35-1.79c0.41-0.45,0.97,0.04,1.37-0.42c0.54,0.58,1.42,0.39,1.55,1.12
			c0.5-0.2,0.97-0.56,1.41-1.11c2.87-0.92,5.48-3.52,8.33-4.57c0.17-0.21-0.15-0.34,0.18-0.57c0.7-0.38,2.12-0.81,2.98-0.67
			C97.89,22.38,98.52,21.98,99.24,22.66"/>
		<path class="st0" d="M96.31,25.37c-0.49,1.15-2.09,1.37-2.98,2.44c-0.27,0.33-0.66,1-1.17,1.27c-0.09,0.05-0.37-0.07-0.48,0.01
			c-0.34,0.23-0.77,0.82-1.25,1.22c-0.56,0.47-1.27,0.65-1.25,1.22c-0.44-0.02-0.75,0.75-1.13,1.06c1.44-3.18,4.36-4.44,6.55-6.68
			C95.05,26.23,95.75,25.55,96.31,25.37"/>
		<path class="st0" d="M91.99,29.66c-0.46,0.49-0.42,1.1-0.96,1.31C91.21,30.55,91.31,29.68,91.99,29.66"/>
		<path class="st0" d="M89.38,31.42c0.01,0.27-0.16,0.57-0.41,0.88C88.7,31.87,89.07,31.67,89.38,31.42"/>
		<path class="st0" d="M88.65,32.42c0.04,0.3-0.16,0.95-0.56,0.77C88.05,32.86,88.46,32.66,88.65,32.42"/>
		<path class="st0" d="M87.67,33.6c0.34,0.13-0.1,0.43-0.2,0.44C87.29,33.97,87.47,33.51,87.67,33.6"/>
		<path class="st0" d="M79.7,28.3c0.21,0.17,0.34-0.15,0.58,0.18c-1.19,2.26-2.6,6.9-5.44,8.08c-0.18,0.21,0,0.36-0.18,0.58
			c-0.7,0.46-1.41,0.93-2.08,1.55c-1.94-0.05-2.28,3.08-3.51,4.3c-0.31-0.95,0.37-2.06,0.61-3.09c-1.69,1.67-1.54,3.65-1.23,5.24
			c1.21,0.5,2.76-0.36,4.12-1.26c1.23-0.81,2.49-2.02,3.75-3.18c0.18,0.25,0,0.55,0.26,0.78c-1.74,1.83-2.07,4.31-3.63,6.09
			c-0.06,0.12,0.14,0.2,0.25,0.3c-0.73,0.45-1.41,1.21-2.25,0.96c-0.4,0.35-0.78,0.83-1.3,0.48c0.2-0.2,0.63-0.24,0.61-0.5
			c-0.79,0.21-1.91,0.06-2.91-0.23c-0.55-0.16-0.47-0.6-0.86-1.09c-0.56-0.71-1.37-1.07-0.91-1.83c-0.51-0.19-0.26-0.5-0.66-0.71
			c0.28-0.29,0.34-0.55,0.36-0.81c-0.46-1.2,0.24-2.58,0.21-3.85c0.95-1.92,2.08-4.16,2.85-5.83c0.66-0.42,0.54-0.88,1.19-1.61
			c0.15-0.21-0.07-0.35-0.09-0.53c1.22-1.48,1.99-3.12,3.22-4.39c0.57-1.44,2.43-1.88,3.48-3.13c0.55,0.14,1.01-0.25,1.53-0.31
			c0.3,0.13,0.01,0.25-0.09,0.29c0.25,0.02,0.35,0.42,0.87,0.75C79.93,25.76,79.86,27.34,79.7,28.3"/>
		<path class="st1" d="M300.7,28.3c0.21,0.17,0.34-0.15,0.58,0.18c-1.19,2.26-2.6,6.9-5.44,8.08c-0.18,0.21,0,0.36-0.18,0.58
			c-0.7,0.46-1.41,0.93-2.08,1.55c-1.94-0.05-2.28,3.08-3.51,4.3c-0.31-0.95,0.37-2.06,0.61-3.09c-1.69,1.67-1.54,3.65-1.23,5.24
			c1.21,0.5,2.76-0.36,4.12-1.26c1.23-0.81,2.49-2.02,3.75-3.18c0.18,0.25,0,0.55,0.26,0.78c-1.74,1.83-2.07,4.31-3.63,6.09
			c-0.06,0.12,0.14,0.2,0.25,0.3c-0.73,0.45-1.41,1.21-2.25,0.96c-0.4,0.35-0.78,0.83-1.3,0.48c0.2-0.2,0.63-0.24,0.61-0.5
			c-0.79,0.21-1.91,0.06-2.91-0.23c-0.55-0.16-0.47-0.6-0.86-1.09c-0.56-0.71-1.37-1.07-0.91-1.83c-0.51-0.19-0.26-0.5-0.66-0.71
			c0.28-0.29,0.34-0.55,0.36-0.81c-0.46-1.2,0.24-2.58,0.21-3.85c0.95-1.92,2.08-4.16,2.85-5.83c0.66-0.42,0.54-0.88,1.19-1.61
			c0.15-0.21-0.07-0.35-0.09-0.53c1.22-1.48,1.99-3.12,3.22-4.39c0.57-1.44,2.43-1.88,3.48-3.13c0.55,0.14,1.01-0.25,1.53-0.31
			c0.3,0.13,0.01,0.25-0.09,0.29c0.25,0.02,0.35,0.42,0.87,0.75C300.93,25.76,300.86,27.34,300.7,28.3"/>
		<path class="st1" d="M374.7,28.3c0.21,0.17,0.34-0.15,0.58,0.18c-1.19,2.26-2.6,6.9-5.44,8.08c-0.18,0.21,0,0.36-0.18,0.58
			c-0.7,0.46-1.41,0.93-2.08,1.55c-1.94-0.05-2.28,3.08-3.51,4.3c-0.31-0.95,0.37-2.06,0.61-3.09c-1.69,1.67-1.54,3.65-1.23,5.24
			c1.21,0.5,2.76-0.36,4.12-1.26c1.23-0.81,2.49-2.02,3.75-3.18c0.18,0.25,0,0.55,0.26,0.78c-1.74,1.83-2.07,4.31-3.63,6.09
			c-0.06,0.12,0.14,0.2,0.25,0.3c-0.73,0.45-1.41,1.21-2.25,0.96c-0.4,0.35-0.78,0.83-1.3,0.48c0.2-0.2,0.63-0.24,0.61-0.5
			c-0.79,0.21-1.91,0.06-2.91-0.23c-0.55-0.16-0.47-0.6-0.86-1.09c-0.56-0.71-1.37-1.07-0.91-1.83c-0.51-0.19-0.26-0.5-0.66-0.71
			c0.28-0.29,0.34-0.55,0.36-0.81c-0.46-1.2,0.24-2.58,0.21-3.85c0.95-1.92,2.08-4.16,2.85-5.83c0.66-0.42,0.54-0.88,1.19-1.61
			c0.15-0.21-0.07-0.35-0.09-0.53c1.22-1.48,1.99-3.12,3.22-4.39c0.57-1.44,2.43-1.88,3.48-3.13c0.55,0.14,1.01-0.25,1.53-0.31
			c0.3,0.13,0.01,0.25-0.09,0.29c0.25,0.02,0.35,0.42,0.87,0.75C374.93,25.76,374.86,27.34,374.7,28.3"/>
		<path class="st0" d="M70.16,42.61c0.23,0.17-0.19,0.63-0.38,0.67C69.66,43.1,70.07,42.83,70.16,42.61"/>
		<path class="st0" d="M66.94,34.39c0.16,0.34-0.4,0.79-0.63,1.19C66.16,35.22,66.67,34.6,66.94,34.39"/>
		<path class="st0" d="M66.39,27.86c0.25-0.24-0.07-0.4,0.1-0.63c-2.37-2.8-5.14-1.49-7.33-0.35c0.1-0.15,0.14-0.29,0.07-0.42
			c-0.61,0.37-1.21,0.75-1.82,1.04c0.01-0.25-0.18-0.47-0.05-0.74c-0.91-0.71-1.82-1.43-2.58-1.16c0.22,1.81-1.48,3.91-2.02,5.84
			c-0.85,1.12-1.01,2.51-1.75,3.68c-0.32,0.5-0.96,0.87-1.55,1.47c-1.32,1.32-2.16,2.27-3.38,3.32c-0.95,0.82-2.08,1.23-3.02,2.18
			c-2.54,1.27-5,3.11-7.69,3.38c-0.02-1.09,0.06-2.19,0.03-3.28c2.6-1.08,5.13-2.58,7.52-4.92c-0.1,0.15-0.14,0.29-0.07,0.42
			c0.51-0.98,1.83-1.58,2.72-2.74c-0.23,0.29-0.41,0.56-0.36,0.81c0.52,0.09,0.88-0.81,1.31-1.29c-0.17-0.29-0.53,0.33-0.48,0
			c0.93-0.69,1.67-1.99,2.09-2.84c-0.38-0.12-0.05-0.36-0.08-0.54c1.07-1.41,1.47-2.42,2.09-3.67c-0.16-0.9-1.26-1.67-2.37-2.42
			c-2.46,0.08-4.57,2.32-6.85,3.53c0.48-0.85-0.24-1.51-0.76-2.2c-0.36-0.08-0.72-0.21-1.12-0.57c-2.21-0.55-4.28-0.15-6.36,0.11
			c-4.59,2.19-9.28,3.79-13.62,7.58c0.82,0.78,0.12,1.8,1.23,2.53c0.36-0.07,0.72-0.06,1.15,0.36c2.07-0.62,3.94-2.56,6.1-2.66
			c-1.36,3.39-4.98,7.6-7.57,9.84c-0.67,0.58-1.21,0.91-1.59,1.2c-1.98,1.52-3.43,3.5-5.13,3.12c0.01-1.14-0.17-2.25-0.39-3.35
			c0.7-0.61,0-1,0.7-1.61c-0.22-0.25-0.34,0.19-0.54,0.08c0.15-1.7,0.72-3.57,1.4-5.47c0.36-1,0.54-2.09,0.97-2.94
			c0.57-1.13,1.29-1.84,1.24-2.99c3.4-4.95,7.1-8.05,10.83-10.89c0.67-0.13,1.28-0.61,1.9-0.98c0.68-0.07,1.37,0,1.98-0.45
			c-0.5-0.81-1.39-1.7-2.41-2.21c-0.93-0.47-1.8-0.18-2.5-0.15c-2.63,1.24-5.16,3.93-7.39,6.2c-5.34,5.43-8.01,12.59-9.21,18.07
			c0.2,0.98,0,1.72,0.1,2.78c0.06,0.67,0.25,1.26,0.41,1.71c0.36,1.02,0.46,2.59,0.87,3.34c0.57,1.05,1.39,1.49,2.4,1.74
			c-0.08,0.26-0.36,0.56,0.05,0.74c1.4,0.32,2.59-0.66,3.98-0.42c1.72-0.94,3.48-1.71,5.03-3.78c0.97-0.36,1.76-1.9,2.7-2.4
			c0.41-1.16,1.69-2.61,2.42-3.75c-0.18,0.38-0.12,0.72-0.37,1.11c0.46-0.27,0.84-1.07,1.26-1.56c-0.1-0.92,0.72-1.98,1.51-3.03
			c0.61-1.37,1.31-2.75,1.42-4.04c-1.19,1.65-2.13,5.09-3.79,5.97c0.28-0.62,0.99-1.64,1.44-2.61c0.06-0.14-0.16-0.19-0.12-0.32
			c0.04-0.16,0.61-0.89,0.49-0.83c-0.44,0.22-0.17,0.78-0.78,0.73c0.48-0.76,1.3-1.56,1.56-2.29c0.18-0.29-0.41,0.12-0.24-0.17
			c1.01-0.93,0.42-1.61,0.85-2.45c0.1-0.11,0.24,0.06,0.37,0.15c0.87-1.13,1.92-1.13,2.76-2.48c1.85-0.75,3.37-3.57,5.53-2.36
			c0.35,0.65,0.36,1.35,0.39,2.05c-2.61,3.63-6.38,6.87-7.3,10.62c-0.17,0.25-0.4,0.11-0.55,0.42c-0.6,2.41-0.75,4.75,0.54,6.87
			c0.28,0.21,0.57,0.41,0.85,0.62c-0.08,0.1-0.15,0.2-0.23,0.31c1.13,0.93,1.27,0.34,2.24,1.15c0.36-0.19,1.35-0.02,1.39,0.53
			c2.68-0.51,5.19-3.23,7-5.83c-0.09,0.07-0.42-0.19-0.29-0.26c0.21-0.28,0.42-0.56,0.62-0.85c0.12-0.06,0.24-0.13,0.36-0.21
			c-0.3-0.13,0.13-0.38,0.2-0.56c0.08,0.16,0,0.34-0.15,0.53c1.59-1.03,2.99-3.18,4.54-4.42c-0.89,1.5-1.63,2.98-2.72,4.51
			c0.13,0.71,0.08,1.44-0.07,2.19c0.87,0.62,0.85,1.37,1.75,1.98c0.82,0.27,1.71,0.98,2.38,0.31c0.5-1.86,1.66-3.7,2.34-5.14
			c-0.37-0.33-0.55,0.55-0.87,0.55c0.45-0.78,0.67-1.47,1.43-1.79c0.04-0.25-0.26-0.46-0.05-0.74c0.97-1.32,1.24-2.89,2.14-4.22
			c0.91-1.33,2.48-2.13,3.28-3.51c1.29-0.67,2.34-2.88,3.8-2.43c-0.57,1.42-1.15,3.15-1.91,4.39c0.06,0.49-0.12,0.95-0.32,1.41
			c-0.61,1.34-0.9,2.73-1.34,4.09c-0.51,1.56-1.56,2.72-2.01,4.2c0.33,1.08-0.17,2.3,1.33,3.2c0.53-0.16,1.04-0.36,1.65,0.02
			c1.62-1.05,2.45-2.96,3.23-4.73c-0.51,0.12-0.89,1.01-1.42,0.98c0.36-0.69,0.79-0.99,0.38-1.49c-0.2,0.45-0.97,1.24-1.12,2.02
			c-0.18-0.09-0.28,0.23-0.46,0.14c0-0.88,0.67-1.04,0.72-1.95c0.26,0.05,0.46-0.27,0.7-0.31c0.88-1.55,2.14-3.15,2.43-4.61
			c-1.39,1.76-2.14,3.93-3.84,5.23c0.19-1.67,2.17-2.82,3.17-4.65c0.61-1.48,1.95-3.04,2.47-4.34
			C68.23,31.65,68.84,29.17,66.39,27.86z M19.06,26.6c-0.92,1.38-2.3,2.94-3.49,4.77c-0.13,0.07-0.29-0.03-0.41,0.08
			C16.36,30.08,17.61,27.89,19.06,26.6z M15.26,32.11c0.16,0.4-0.57,0.95-0.67,1.4C14.44,33.1,14.91,32.59,15.26,32.11z
			 M20.25,48.43c0.95-2.39,3.37-4.79,5-6.98C24.19,44.28,22.04,46.15,20.25,48.43z M24.85,42.81c0.32-0.25,0.28-0.44,0.62-0.84
			C25.65,42.14,25.25,43.19,24.85,42.81z M25.92,42.64c0-0.51,0.58-1.57,1.16-1.75C26.74,41.63,26.28,41.77,25.92,42.64z
			 M42.58,30.42c1.21-0.33,2.58-1.85,3.66-1.59c-3.01,4.16-6.65,7.12-10.2,9.23C38.03,34.84,39.98,32.75,42.58,30.42z M88.58,30.42
			c1.21-0.33,2.58-1.85,3.66-1.59c-3.01,4.16-6.65,7.12-10.2,9.23C84.03,34.84,85.98,32.75,88.58,30.42z"/>
		<path class="st0" d="M27.8,41.08c0.06-0.09,0.12-0.18,0.17-0.27C27.89,40.91,27.84,41,27.8,41.08"/>
		<path class="st0" d="M53.04,41.06c0.34,0.13-0.16,0.51-0.26,0.52C52.69,41.47,52.8,40.99,53.04,41.06"/>
		<path class="st0" d="M48.67,30.36c0.22-0.2,0.47-0.2,0.77,0.08c-0.78,0.36-0.39,1.39-1.28,1.9
			C47.95,31.75,48.96,30.95,48.67,30.36"/>
		<path class="st0" d="M44.93,41.78c0.08,0.16,0,0.34-0.15,0.53c-0.02,0.01-0.04,0.02-0.05,0.03
			C44.43,42.21,44.85,41.97,44.93,41.78"/>
		<path class="st0" d="M44.77,42.31c-0.01,0.01-0.02,0.03-0.03,0.04c-0.01,0-0.01,0-0.02-0.01C44.74,42.33,44.76,42.33,44.77,42.31"
			/>
		<path class="st0" d="M27.8,41.08c0.04-0.08,0.1-0.17,0.17-0.27C27.91,40.91,27.86,40.99,27.8,41.08"/>
		<path class="st0" d="M114.5,58.33l-1.07,0.3l-1.78,0.06c0,0-2.63-0.21-0.28-0.42h1.56L114.5,58.33z M108.19,58.12l-0.57,0.3
			l-0.96,0.06c0,0-1.41-0.21-0.15-0.42h0.84L108.19,58.12z M169.77,55.94c-3.73-0.36-7.05-0.55-10.39-0.35
			c-1.43,0.08-2.87,0.08-4.3,0.07c-3.79-0.01-7.59-0.04-11.38-0.08c-2.87-0.03-5.74-0.21-8.62-0.15c-4.42,0.1-8.85-0.03-13.28-0.05
			c-1.9-0.01-3.8-0.01-5.69,0.04c-2.64,0.07-5.28,0.18-7.91,0.28c-2.81,0.1-5.62,0.2-8.43,0.3c-2.47,0.09-4.94,0.23-7.41,0.25
			c-3.9,0.03-7.81-0.04-11.71-0.04c-4.31,0-8.62,0.05-12.93,0.05c-4.54,0.01-9.08,0-13.62-0.02c-1.03,0-2.07-0.1-3.1-0.1
			c-2.3,0-4.58,0.26-6.89,0.1c-0.51-0.04-1.03,0.01-1.55,0.01c-2.64,0.04-5.28,0.08-7.93,0.11c-0.69,0.01-1.38-0.08-2.07-0.07
			c-2.81,0.04-5.63,0.1-8.44,0.14c-1.03,0.02-2.07,0.01-3.1,0.03c-0.46,0.01-0.92,0.01-1.38,0.06c-2.38,0.27-4.77,0.42-7.22,0.4
			c0.06,0.54,0.1,1.06,0.18,1.58c0.08,0.53,0.19,1.05,0.75,1.56c0.66,0.13,1.45,0.41,2.22,0.41c1.25-0.01,2.5-0.19,3.75-0.32
			c1.13-0.12,2.26-0.27,3.4-0.39c0.4-0.04,0.82,0.03,1.2-0.05c2.93-0.54,5.93-0.45,8.9-0.69c0.34-0.03,0.69,0.01,1.03,0.01
			c0.92,0.02,1.84,0.08,2.75,0.05c3.33-0.1,6.65-0.37,9.98-0.04c1.31,0.13,2.61,0.37,3.94,0.21c0.22-0.03,0.46,0.03,0.69,0.06
			c2.4,0.36,4.8,0.42,7.22,0.32c0.86-0.04,1.73-0.07,2.59,0.02c1.68,0.17,3.33-0.01,4.98-0.13c2.39-0.15,5.44-0.45,8.56-0.73
			c0.45-0.04,0.94-0.08,1.37,0.02c1.03,0.24,2.05,0.18,3.08,0.19c1.26,0.01,2.53,0.05,3.78,0.15c1.37,0.11,2.73,0.35,4.1,0.45
			c4.36,0.32,8.73,0.56,13.1,0.34c1.43-0.07,2.86-0.2,4.29-0.28c1.77-0.1,3.56-0.31,5.32-0.23c3.18,0.14,6.31-0.24,9.46-0.35
			c2.06-0.08,4.12-0.24,6.18-0.34c1.95-0.1,3.9-0.17,5.85-0.27c1.03-0.05,2.06-0.12,3.09-0.19c1.54-0.1,3.08-0.22,4.62-0.32
			c0.97-0.06,1.94-0.12,2.91-0.17c1.95-0.09,3.9-0.11,5.84-0.27c1.09-0.09,2.17-0.14,3.26-0.08c1.03,0.05,2.08,0.12,3.1,0.01
			c1.82-0.21,3.65-0.27,5.49-0.28c0.57-0.01,1.15-0.01,1.72-0.04c1.66-0.11,3.06-0.53,4.71-0.68c0.99-0.09,1.75-0.04,2.77-0.21
			C168.77,56.21,169.28,56.18,169.77,55.94"/>
		<path class="st0" d="M75.19,59.78h1.56l1.56,0.07l-1.07,0.3l-1.78,0.06C75.47,60.2,72.84,59.99,75.19,59.78"/>
		<path class="st0" d="M38.01,59.08l3.55-0.5l3.56-0.43l-2.38,0.64l-4.03,0.62C38.71,59.41,32.71,60.04,38.01,59.08"/>
		<path class="st0" d="M84.15,59.51l3.59-0.09l3.59-0.03l-2.44,0.36l-4.08,0.16C84.81,59.91,78.77,59.86,84.15,59.51"/>
		<path class="st0" d="M53.37,59.72l-3.18,0.17l-3.19,0l2.13-0.86l3.6-0.33C52.74,58.69,58.11,58.94,53.37,59.72"/>
		<path class="st0" d="M31.18,59.78h5.97l5.97,0.11l-4.07,0.49l-6.78,0.09C32.26,60.47,22.23,60.13,31.18,59.78"/>
		<path class="st0" d="M71.37,59.35h0.84l0.84,0.07l-0.57,0.3l-0.96,0.06C71.53,59.78,70.11,59.57,71.37,59.35"/>
		<path class="st0" d="M40.79,59.23h0.84l0.84,0.07l-0.57,0.3l-0.96,0.06C40.94,59.66,39.53,59.45,40.79,59.23"/>
		<path class="st0" d="M23.72,60.13h0.84l0.84,0.07l-0.57,0.3l-0.96,0.06C23.87,60.55,22.46,60.34,23.72,60.13"/>
		<path class="st1" d="M330.99,57.59l-1.13,0.38l-1.88,0.07c0,0-2.79-0.27-0.3-0.53h1.66L330.99,57.59z M324.31,57.32l-0.61,0.38
			l-1.01,0.07c0,0-1.5-0.27-0.16-0.53h0.89L324.31,57.32z M389.5,54.58c-3.95-0.46-7.47-0.69-11-0.44c-1.51,0.1-3.03,0.1-4.55,0.09
			c-4.02-0.02-8.03-0.05-12.05-0.1c-3.04-0.04-6.08-0.27-9.13-0.19c-4.68,0.12-9.37-0.04-14.06-0.06c-2.01-0.01-4.02-0.01-6.02,0.05
			c-2.79,0.08-5.59,0.23-8.38,0.35c-2.98,0.13-5.95,0.25-8.93,0.38c-2.61,0.11-5.22,0.29-7.84,0.31c-4.13,0.03-8.27-0.06-12.4-0.05
			c-4.56,0-9.13,0.06-13.69,0.07c-4.81,0.01-9.62,0-14.42-0.03c-1.09-0.01-2.19-0.12-3.29-0.12c-2.43,0-4.85,0.32-7.29,0.12
			c-0.54-0.04-1.1,0.01-1.64,0.02c-2.8,0.05-5.59,0.11-8.39,0.14c-0.73,0.01-1.46-0.1-2.19-0.09c-2.98,0.05-5.96,0.12-8.94,0.18
			c-1.09,0.02-2.19,0.02-3.28,0.03c-0.49,0.01-0.98,0.01-1.46,0.08c-2.52,0.34-5.05,0.53-7.65,0.51c0.06,0.68,0.11,1.33,0.19,1.98
			c0.08,0.66,0.2,1.32,0.79,1.96c0.7,0.16,1.53,0.52,2.35,0.51c1.33-0.01,2.65-0.24,3.97-0.4c1.2-0.15,2.4-0.34,3.6-0.49
			c0.42-0.05,0.87,0.03,1.27-0.06c3.1-0.68,6.28-0.57,9.42-0.86c0.36-0.03,0.73,0.01,1.09,0.02c0.97,0.02,1.94,0.1,2.91,0.07
			c3.52-0.13,7.04-0.47,10.57-0.05c1.39,0.16,2.76,0.46,4.17,0.26c0.23-0.03,0.49,0.03,0.73,0.08c2.54,0.46,5.09,0.53,7.65,0.4
			c0.91-0.04,1.83-0.09,2.74,0.02c1.78,0.21,3.52-0.01,5.27-0.17c2.53-0.19,5.75-0.57,9.06-0.91c0.48-0.05,1-0.1,1.45,0.03
			c1.09,0.3,2.17,0.22,3.26,0.23c1.34,0.02,2.68,0.06,4.01,0.19c1.45,0.14,2.89,0.44,4.35,0.57c4.62,0.4,9.24,0.7,13.87,0.43
			c1.52-0.09,3.02-0.25,4.54-0.35c1.88-0.13,3.76-0.4,5.64-0.3c3.37,0.18,6.68-0.3,10.01-0.45c2.18-0.1,4.36-0.3,6.54-0.43
			c2.06-0.13,4.13-0.22,6.19-0.34c1.09-0.06,2.18-0.15,3.27-0.23c1.63-0.13,3.26-0.28,4.9-0.4c1.03-0.08,2.05-0.15,3.08-0.21
			c2.06-0.11,4.13-0.14,6.18-0.33c1.15-0.11,2.29-0.17,3.45-0.1c1.09,0.07,2.21,0.15,3.28,0.01c1.93-0.26,3.87-0.34,5.81-0.36
			c0.61-0.01,1.22-0.01,1.82-0.05c1.75-0.14,3.24-0.66,4.99-0.85c1.05-0.12,1.85-0.05,2.94-0.27
			C388.44,54.93,388.98,54.89,389.5,54.58"/>
		<path class="st1" d="M289.37,59.4h1.66l1.66,0.08l-1.13,0.38l-1.88,0.07C289.67,59.94,286.89,59.67,289.37,59.4"/>
		<path class="st1" d="M250.01,58.53l3.76-0.62l3.77-0.54l-2.52,0.8l-4.27,0.78C250.76,58.95,244.4,59.73,250.01,58.53"/>
		<path class="st1" d="M298.85,59.07l3.8-0.12l3.8-0.03l-2.58,0.46l-4.31,0.21C299.56,59.58,293.16,59.51,298.85,59.07"/>
		<path class="st1" d="M266.28,59.33l-3.37,0.21l-3.37,0l2.25-1.08l3.82-0.42C265.6,58.04,271.29,58.35,266.28,59.33"/>
		<path class="st1" d="M242.78,59.4h6.32l6.32,0.14l-4.31,0.62l-7.18,0.12C243.93,60.28,233.3,59.84,242.78,59.4"/>
		<path class="st1" d="M285.33,58.87h0.89l0.89,0.08l-0.61,0.38l-1.01,0.07C285.49,59.4,284,59.14,285.33,58.87"/>
		<path class="st1" d="M252.95,58.72h0.89l0.89,0.08l-0.61,0.38l-1.01,0.07C253.12,59.25,251.62,58.99,252.95,58.72"/>
		<path class="st1" d="M234.88,59.84h0.89l0.89,0.08l-0.61,0.38l-1.01,0.07C235.04,60.37,233.55,60.11,234.88,59.84"/>
	</g>
	<g>
		<path class="st2" d="M189.67,37.84c0,0.11,0,0.11,0.11,0.11c-0.34,0.45-0.67,1.01-1.01,1.57c0.56,0.11,1.01,0.11,1.46,0.11
			c1.68-0.22,3.36-0.56,5.04-0.45c1.01,0,1.9-0.22,2.91-0.34c0.11-0.11,0.11-0.11,0.22-0.11c1.01,0.11,1.12-0.22,1.34-1.12
			c0.45-2.01,0.9-3.92,1.68-5.82c0.22-0.56,0.45-1.12,0.67-1.57c0.11-0.11,0.22-0.22,0.33-0.22c1.23,0.22,2.35,0.34,3.36,1.01
			c0.45,0.22,0.45,0.56,0.22,0.89c-0.22,0.56-0.45,1.01-0.67,1.46c-0.11,0.56-0.22,1.12-0.34,1.57c-0.22,1.01-0.56,2.01-0.78,3.02
			c-0.11,0.11-0.11,0.22-0.11,0.45c2.13-0.56,4.14-1.12,6.38-0.67c-1.9,0.56-3.81,1.12-5.82,1.68c0.11,0.11,0.22,0.34,0.45,0.56
			c0.89-0.33,1.57,0.45,2.46,1.01c-0.67,0.22-1.34,0.45-1.9,0.67c0,0,0,0,0,0.11c0.78-0.11,1.57-0.11,2.35-0.22
			c0,0.11,0,0.11,0,0.22c-0.45,0.11-0.78,0.22-1.34,0.34c0.22,0,0.45,0.11,0.56,0.11c0,0.11,0,0.11,0,0.22
			c-0.67,0.11-1.34,0.22-2.02,0.34c-0.56,0.11-1.23,0.11-1.9,0.45c-0.22,0.11-0.45,0.45-0.56,0.78c-0.45,1.23-0.9,2.46-1.23,3.69
			c-0.22,0.67-0.34,1.34-0.45,2.01c-0.22,0.67-0.22,1.23-0.78,1.79c-0.22,0.11-0.34,0.78-0.22,1.01c0.34,0.56,0.11,1.01-0.11,1.46
			c-0.22,0.45-0.45,0.89-0.22,1.34c0.11,0.11,0.11,0.34,0,0.45c-0.22,0.56-0.45,1.01-0.56,1.57c-0.22,0.56-0.34,1.23-0.45,1.79
			c-0.11,0.33,0,0.56-0.45,0.67c-0.11,0-0.22,0.22-0.22,0.34c0,0.22,0.11,0.45,0,0.67c-0.11,0.34-0.22,0.56-0.34,0.78
			c-0.11,0-0.11,0-0.22,0c0.22,0.22,0.34,0.45,0.56,0.56c-0.22,0.34-0.34,0.67-0.56,0.9c-0.11,0.11-0.22,0.22-0.34,0.22
			c-0.45,0-1.34-0.78-1.34-1.23c-0.11-0.89-0.22-1.9-0.33-2.8c0-0.11,0-0.11,0-0.22c0.45-2.01,0.11-4.14,0.33-6.27
			c0-0.9,0.22-1.79,0.34-2.69c0.22-1.57,0.45-3.02,0.67-4.59c0.11-0.78,0.11-0.9-0.67-0.67c-1.12,0.33-2.13,0.67-3.13,1.01
			s-2.01,0.78-3.02,1.23c-0.78,0.22-1.46,0.45-2.24,0.67c-0.78,0.34-1.57,0.67-2.35,0.9c-0.56,0.22-1.01,0.34-1.46,0.56
			c-0.11,0-0.22,0-0.22,0c-0.67-0.67-1.57-0.11-2.35-0.45c-0.33-0.22-0.67-0.34-0.78-0.78c-0.11-0.56-0.56-0.67-1.12-0.78
			c-0.56,0-1.34-0.9-1.34-1.46c0.11-0.89,0.34-1.68,0.45-2.57c0.45-2.24,1.9-4.03,3.13-5.82c1.57-2.35,3.13-4.7,4.7-7.05
			c1.01-1.57,2.01-3.02,3.02-4.48c1.23-1.79,2.46-3.58,3.69-5.26c0.78-1.01,1.57-1.9,2.35-2.8c0.45-0.45,0.89-0.34,1.34-0.11
			c0.67,0.34,1.34,0.78,1.68,1.57c0.22,0.22,0.34,0.34,0.56,0.56c0.45,0.67,0.33,1.34,0,2.01c-0.22,0.34-0.22,0.78-0.45,1.12
			c-0.34,0.56-0.78,1.01-1.12,1.57c-0.56,0.9-1.12,1.68-1.68,2.57c-0.56,1.12-1.23,2.13-1.9,3.13c-0.34,0.67-0.67,1.46-1.12,2.13
			c-0.56,0.78-1.12,1.57-1.57,2.35c-0.45,0.56-0.78,1.23-1.12,1.9c-0.34,0.56-0.67,1.01-1.01,1.57c0,0,0.11,0,0.11,0.11
			C189.33,38.07,189.44,37.95,189.67,37.84z M203.21,43.1c0.45-0.11,0.89-0.45,1.23-0.78c0.56-0.45,1.23-0.78,2.01-0.9
			c1.12-0.11,2.13-0.45,3.13-0.67c0.22,0,0.45-0.22,0.56-0.34c0.11-0.22,0.22-0.45,0.11-0.56c0-0.11-0.22-0.22-0.45-0.34
			c-0.11,0-0.34,0.11-0.56,0.11c-1.01,0.11-2.01,0.22-3.02,0.33c-0.22,0-0.34,0-0.45,0c0.22-0.33,0.45-0.67,0.67-1.01
			c0.22-0.11,0.45-0.11,0.67-0.11c0.56-0.11,1.23,0,1.9,0c0-0.11,0-0.11,0-0.22c-0.45,0-0.9-0.11-1.23-0.11
			c-0.11,0-0.11-0.11-0.11-0.11c0.22-0.11,0.56-0.22,0.78-0.34c1.01-0.11,2.01-0.22,3.02-0.34c-0.11-0.34-0.11-0.22-0.22-0.56
			c0.45-0.11,0.89-0.22,1.34-0.22c0.11,0,0.11-0.34,0.11-0.34c0.22,0.67,0.9,0.34,1.34,0.45c0.11,0.11,0.34,0.33,0.45,0.45
			c0,0.11,0,0.11-0.11,0.22c-0.45,0-0.89,0.11-1.46,0.11c0.22,0.22,0.45,0.45,0.56,0.56c0.11,0.11,0.22,0.22,0.34,0.34
			c-0.11,0-0.22,0.11-0.34,0.22c-0.45,0.11-0.9,0.22-1.34,0.34c0.11,0.22,0.11,0.45,0.22,0.56c0.22,0,0.33-0.11,0.45-0.11
			c0.11,0.11,0.34,0.11,0.45,0.22c0,0.11-0.11,0.34-0.11,0.45c-0.11,0.11-0.11,0.22-0.22,0.34c-0.22,0.22-0.34,0.33-0.45,0.45
			c-0.22,0.11-0.34,0.34-0.56,0.45c-0.11,0.11,0.67-0.45,0.56-0.45s-0.9-0.11-0.9-0.11c0.11-0.56-0.56-0.22-0.78-0.45
			c-0.34,0.22-0.67,0.34-1.01,0.56c-0.22,0.22-0.45,0.45-0.67,0.67c-0.11,0.11-0.22,0.22-0.34,0.22c-0.67,0.11-1.34,0.22-2.01,0.34
			c-0.9,0.11-1.68,0.22-2.46,0.45c-0.11,0-0.22,0.11-0.34,0.11c-0.22,0.22-0.56,0.34-0.78,0.56c0-0.11-0.11-0.11-0.11-0.22
			C203.1,43.33,203.1,43.1,203.21,43.1z"/>
	</g>
	<path class="st3" d="M295.88,29.78c1.15-0.49,2.32-2.17,3.42-2.05c-2.45,4.51-5.68,7.91-8.93,10.46
		C291.93,34.75,293.6,32.42,295.88,29.78z"/>
	<path class="st3" d="M369.88,29.78c1.15-0.49,2.32-2.17,3.42-2.05c-2.45,4.51-5.68,7.91-8.93,10.46
		C365.93,34.75,367.6,32.42,369.88,29.78z"/>
</g>
<g id="Logo_4">
</g>
<g id="Logo_3">
</g>
<g id="Logo_2">
</g>
<g id="Logo_1">
	<g>
		<path class="st1" d="M239.9,17.57c-0.08-0.01-0.16-0.01-0.25,0.09c0.07,0.22,0.05,0.44,0.12,0.66c0.13,0.45,0.43,1.01,0.39,1.55
			c-0.05,2.07-0.19,4.25-0.24,6.32c-0.01,0.22,0.05,0.44,0.12,0.66c0.12-0.54,0.23-1.08,0.27-1.62c0.02-0.33,0.04-0.65,0.14-0.86
			c0.01-0.11,0.18-0.32,0.26-0.31c0.08,0.01,0.32,0.13,0.31,0.24c0.13,0.45,0.27,0.89,0.24,1.33c0.02,0.98-0.2,1.95-0.02,2.84
			c0.19,0.88-0.18,1.63-0.08,2.5c0.05,0.44-0.22,0.86-0.33,1.29c-0.23,1.08-0.38,2.16-0.69,3.23c-0.01,0.22-0.27,0.42-0.37,0.74
			c-0.19,0.42-0.47,0.95-0.58,1.49c-0.32,1.18-0.55,2.26-0.86,3.33s-0.7,2.03-1.09,2.99c-0.4,1.17-1.03,2.12-1.82,2.94
			c-0.87,0.82-1.74,1.64-2.76,2.34c-1.28,0.79-2.56,1.8-4.2,1.81c-1.39,0.02-2.86,0.04-4.31-0.27c-1.53-0.31-2.86-1.27-3.92-2.54
			c-0.53-0.69-1.14-1.27-1.67-1.96c-0.3-0.46-0.58-1.13-0.71-1.68c-0.3-1.66-0.61-3.21-0.75-4.85c-0.15-1.43-0.23-2.85-0.23-4.16
			c-0.01-1.09,0.21-2.06,0.28-3.15c0.33-2.6,0.89-5.07,1.7-7.53c0.8-2.35,1.68-4.59,2.96-6.69c0.09-0.1,0.1-0.21,0.18-0.32
			c0.37-0.74,0.88-0.93,1.67-0.66c0.47,0.25,0.96,0.39,1.51,0.64c0.32,0.13,0.55,0.25,0.28,0.67c-0.28,0.53-0.39,1.07-0.59,1.6
			c-0.51,1.61-1.02,3.21-1.52,4.71c-0.8,2.35-1.29,4.83-1.61,7.32c-0.18,1.63-0.45,3.25-0.48,4.99c-0.04,1.85-0.08,3.82,0.12,5.79
			c0.18,2.3,2.33,4.4,4.45,4.54c1.86,0.23,3.23-0.67,4.37-2.01c1.41-1.55,2.18-3.46,2.71-5.4c0.73-2.46,1.46-4.93,2.02-7.41
			c0.59-2.91,1.02-5.83,1.54-8.75c0.25-1.4,0.42-2.81,0.76-4.21c0.12-0.65,0.57-1.27,0.86-2.02c0.1-0.21,0.2-0.53,0.46-0.74
			c0.7-0.72,1.58-0.44,1.93,0.45c0.13,0.44,0.2,0.78,0.33,1.22c-0.08-0.01-0.16-0.01-0.16-0.01
			C240.43,18.37,240.13,17.91,239.9,17.57z"/>
		<path class="st1" d="M256.06,47.07l0.07-0.07c0.39,0.2,0.72,0.46,1.12,0.66c0,0,0.07,0,0.07-0.07c-0.39-0.46-0.72-0.92-1.12-1.38
			c-0.07,0.07-0.13,0.13-0.2,0.2c-0.26-0.13-0.46-0.2-0.59-0.53c-0.13-0.26-0.13-0.46-0.13-0.66c-0.07-0.13,0.07-0.26,0.07-0.33
			c0.13,0.07,0.26,0.13,0.39,0.2c0.06,0.07,0.06,0.07,0.13,0.2c-0.07-0.53-0.2-1.05-0.26-1.51c-0.07-0.2-0.07-0.39-0.13-0.53
			c0-0.26-0.07-0.46-0.46-0.46c0-0.2,0.07-0.46,0.13-0.66c0-0.53,0.13-1.05-0.26-1.51c-0.26-0.26-0.13-0.53-0.13-0.85
			c0.07-1.05,0.2-2.17,0.26-3.29c0-0.53-0.13-1.05-0.13-1.58s0-0.99,0-1.51s-0.07-1.12-0.13-1.64c-0.07-0.33-0.07-0.66-0.13-0.99
			c-0.2-0.46-0.92-0.79-1.45-0.59c-0.79,0.39-1.58,0.85-1.97,1.58c-0.39,0.66-0.66,1.38-0.92,2.1c-0.39,0.92-0.72,1.91-1.05,2.89
			c-0.2,0.46-0.33,0.92-0.46,1.45c-0.33,0.92-0.66,1.77-0.92,2.69c-0.2,0.53-0.39,1.12-0.53,1.64c-0.33,1.25-0.59,2.43-0.86,3.68
			c-0.13,0.39-0.2,0.92-0.46,1.25c-0.26,0.39-0.86,0.53-0.99,0.99c-0.07,0.07-0.26,0-0.33-0.07c-0.26-0.2-0.53-0.13-0.72,0
			c-0.46,0.2-0.46,0.2-1.12,0.07c0.26-0.07,0.46-0.2,0.66-0.26c0-0.07,0-0.07,0-0.13c-0.59-0.2-1.38-0.13-1.25-0.99
			c0.13,0,0.26-0.07,0.53-0.13c-0.72-0.39-0.59-0.79-0.39-1.25c0.39-0.72,0.39-1.45,0.33-2.23c0-0.46-0.06-0.99-0.06-1.51
			c0-1.05,0-2.17,0.13-3.22c0.13-2.1,0.39-4.21,0.53-6.31c0.07-0.39-0.07-0.79-0.07-1.18c0-0.2-0.07-0.39,0-0.59
			c0.07-0.53,0.2-1.05,0.26-1.58c0.07-0.26,0-0.53,0-0.72c-0.13-0.46,0-0.59,0.46-0.59c0.13,0,0.2-0.07,0.33-0.07
			c0.07-0.07,0.13-0.13,0.2-0.13c0.72-0.07,1.51,0.39,1.58,1.05c0,0.79-0.06,1.58-0.06,2.37c-0.07,0.39-0.13,0.72-0.13,1.12
			c0.13,0,0.2,0,0.33-0.07c0,0.39-0.07,0.72-0.13,1.05h-0.06c0-0.13,0-0.26,0-0.53c-0.13,0.72-0.2,1.38-0.26,1.97
			c0.07,0.07,0.07,0.07,0.13,0.07c0,0,0.07-0.07,0.07-0.13c0.26-0.66,0.46-1.31,0.72-1.97c0.26-0.79,0.59-1.51,0.99-2.23
			c0.26-0.59,0.66-1.18,1.12-1.71c0.33-0.39,0.72-0.72,1.18-0.99c0.59-0.33,1.31-0.59,2.04-0.53c0.66,0.07,1.31,0.2,1.97,0.33
			c0.46,0.07,0.92,0.13,1.31,0.2c0.46,0.13,0.85,0.26,1.25,0.39c0.2,0.13,0.33,0.26,0.39,0.46c0.2,0.2,0.39,0.39,0.59,0.66
			c0.2,0.33,0.46,0.66,0.66,0.99c0.06,0.13,0.2,0.33-0.07,0.46c0,0,0,0.07,0,0.13c0.07,0.53,0.13,1.05,0.13,1.58
			c0,0.46,0,0.85-0.06,1.31c-0.07,0.66-0.2,1.38-0.2,2.04c0.2-0.79,0.46-1.58,0.66-2.37c0.07,0,0.13,0,0.13,0
			c0.13,0.53,0.2,1.12-0.2,1.64c-0.2,0.26-0.26,0.53-0.26,0.85c0,0.46-0.26,0.85-0.39,1.25c0,0.13-0.07,0.26-0.07,0.46
			c-0.07,0.66-0.07,1.38-0.07,2.1c0,0.92,0.07,1.84,0.13,2.76c0,0.2,0,0.39,0,0.66c0.13,0.92,0.46,1.77,0.92,2.56
			c0.07,0.07,0.2,0.2,0.2,0.13c0.46-0.07,0.53,0.26,0.66,0.46s0.33,0.39,0.53,0.59c0.53,0.39,0.46,1.05-0.13,1.38
			c-0.2,0.13-0.39,0.39-0.59,0.66c-0.13,0.07-0.33,0.13-0.53,0.2c-0.39,0.2-1.25,0-1.51-0.39c-0.07-0.2-0.46-0.2-0.39-0.53
			c0.46,0.39,0.98,0.46,1.38,0.26c-0.13-0.07-0.33-0.13-0.46-0.2c-0.33,0-0.59-0.33-0.92-0.07
			C256.72,47.73,256.39,47.4,256.06,47.07z M255.87,41.22c-0.07,0-0.13,0-0.2,0c0.13,0.66-0.46,1.25-0.07,1.97
			c0.13-0.2,0.2-0.39,0.33-0.66C255.87,42.14,255.87,41.68,255.87,41.22z"/>
		<path class="st1" d="M267.72,27.75l-0.07,0.07c-0.13-0.13-0.33-0.26-0.46-0.39l-0.07,0.07c0.07,0.2,0.13,0.39,0.33,0.53
			c0.72,0.53,0.59,1.25,0.72,1.97c0.07,0.59,0.13,1.12,0.2,1.71c0.07,0.33,0.07,0.72-0.06,1.05c-0.07,0.2,0,0.39-0.07,0.59
			c-0.13,0.79-0.26,1.64-0.39,2.43c0,0.2-0.07,0.39-0.13,0.66c-0.26,1.18-0.53,2.43-0.79,3.61c-0.2,0.53-0.33,1.12-0.46,1.64
			c-0.2,0.53-0.39,0.99-0.59,1.51c-0.26,0.99-0.59,1.97-0.66,3.02c0,0.59-0.2,1.18-0.26,1.77c-0.07,0.46-0.2,0.92-0.26,1.45
			c0,0.07-0.13,0.13-0.2,0.2c0-0.07-0.13-0.2-0.13-0.26c0-0.46,0.07-0.85,0.07-1.25c0-0.07,0-0.13-0.07-0.2
			c-0.13,0.72-0.2,1.38-0.26,2.1c0.07,0.07,0.13,0.13,0.2,0.2c0.33,0.26,0.2,0.79-0.13,0.85c-0.59,0.13-0.79,0.53-1.05,0.99
			c-0.13,0.33-0.39,0.59-0.72,0.66c-0.39,0.13-0.66,0-0.79-0.46c0-0.13,0-0.33,0-0.46c0-0.66-0.07-1.31,0-1.97
			c0.07-0.46,0.26-0.92,0.39-1.38c0.07-0.53,0.2-0.99,0.26-1.51c0-0.79,0.07-1.51,0.26-2.23c0.13-0.33,0.07-0.72,0.13-1.12
			c0.13-0.33,0.26-0.66,0.39-0.92c0.07-0.07,0.13-0.13,0.13-0.2c0.07-0.92,0.13-1.84,0.2-2.83c-0.13,0-0.26-0.07-0.33-0.07
			c-0.13-0.07-0.2-0.13-0.2-0.2c0.07-0.66,0.2-1.31,0.26-1.91c0-0.46,0.13-0.99-0.07-1.31c-0.2-0.46,0-0.79,0.07-1.12
			c0-0.46,0.13-0.85,0.2-1.25c0.07-0.46,0.2-0.99,0.26-1.45c0.13-1.12,0.26-2.23,0.39-3.35c0.07-0.33,0.07-0.66,0.07-0.99
			c0-0.07,0-0.26,0.07-0.26c0.46,0,0.66-0.79,1.31-0.53c0.33,0.13,0.66,0.07,1.05,0c0.2,0,0.33-0.2,0.59-0.33
			C267.26,27.16,267.52,27.49,267.72,27.75z M264.96,17.56c0.26-0.2,0.39-0.39,0.46-0.72c0.07-0.07,0.07-0.2,0.13-0.26
			c0.59-0.46,0.85-1.18,1.18-1.77c0.13-0.26,0.2-0.53,0.59-0.33c0.26,0.13,0.66,0.07,0.92,0.13c0.26,0,0.59-0.07,0.85,0
			c0.13,0,0.33,0.07,0.46,0.2c0.53,0.53,0.66,1.12,0.33,1.84c0,0.07-0.07,0.13-0.07,0.2c-0.07,0.92-0.72,1.38-1.31,1.91
			c-0.46,0.33-0.79,0.79-1.18,1.25c-0.46,0.53-0.92,0.99-1.51,1.38c-0.26,0.13-0.39,0.46-0.53,0.66c-0.07,0.07-0.07,0.13-0.13,0.2
			c-0.26,0.33-0.53,0.33-0.59-0.13c-0.13-0.53-0.2-1.12-0.26-1.64c0-0.46,0-0.99,0-1.45c0-0.33-0.07-0.72,0.26-0.99
			c0.13-0.13,0.06-0.46,0.13-0.66c0-0.07,0.07-0.13,0.13-0.26C264.89,17.3,264.89,17.43,264.96,17.56z M264.43,47.66
			c0-0.2,0.07-0.39,0.07-0.66c0.07-0.2,0-0.39,0.07-0.53c0.06-0.2,0.2-0.39-0.07-0.59c-0.07,0.59-0.13,1.18-0.13,1.78
			C264.37,47.66,264.37,47.66,264.43,47.66z"/>
		<path class="st1" d="M275.4,33.47c0.07-0.13,0.07-0.26,0.2-0.33c-0.39,2.3,0.13,4.47,0.53,6.7c1.71-2.37,3.22-4.86,5.13-7.16
			c0.13,0.2,0.2,0.33,0.26,0.46c0.72-0.66,4.93-5.65,5.59-6.24c1.12-0.33-0.46,1.77-0.33,2.1c-0.13,0.39-2.69,3.42-2.89,3.94
			c-0.2,0.33-0.39,1.05-0.59,1.38c-0.07,0.07-0.33,0.53-0.26,0.66c0.07,1.18-0.79,1.84-1.12,2.89c-0.33,1.12-0.72,2.23-1.05,3.29
			c-0.07,0.07,0,0.13,0,0.33c0.13-0.13,0.26-0.2,0.33-0.33c0.53-1.18,0.99-2.43,1.58-3.61c0.99-2.04,1.97-4.01,3.02-5.98
			c0.39-0.72,1.05-1.38,1.58-2.04c0.07,0,0.66-0.79,0.72-0.79c0,0.2-0.07,0.72-0.13,0.92c-0.26,0.66-0.33,0.72-1.25,2.69
			c-0.26,0.66-0.59,1.25-0.86,1.84c-0.2,0.59-0.53,1.12-0.79,1.71c-0.53,0.99-1.05,1.91-1.51,2.89c-0.86,1.71-1.71,3.48-2.56,5.19
			c-0.33,0.66-0.66,1.31-1.05,1.91c-0.26,0.33-0.72,0.59-1.05,0.85c-0.13,0.13-0.2,0.33-0.33,0.46c-0.26,0.33-0.46,0.66-0.66,0.92
			c-0.2,0.2-0.39,0.39-0.53,0.59c-0.39,0.39-0.86,0.53-1.18,0.2c-0.26-0.33-0.72-0.59-0.53-1.18c0,0-0.2-0.2-0.33-0.2
			c-0.13,0.07-0.26,0.2-0.39,0.26c-1.05-0.39-1.45-1.18-1.71-2.23c-0.13-0.66,0.13-1.05,0.2-1.58c0-0.26,0.07-0.59,0-0.85
			c-0.39-1.51-0.92-2.96-1.31-4.47c-0.26-1.12-0.46-2.3-0.66-3.48c-0.26-1.45-0.26-3.02-0.72-4.4c-0.33-1.05-0.39-2.1-0.66-3.09
			c-0.13-0.46-0.26-0.79-0.66-1.12c-0.59-0.46-0.72-1.31-0.26-1.77c0.2-0.26,0.59-0.46,0.85-0.39c0.53,0,1.18-0.07,1.51,0.59
			c0.13,0.26,0.39,0.46,0.66,0.66c0.92,0.72,1.38,1.71,1.71,2.83c0.2,0.72,0.53,1.51,0.72,2.23c0.33,0.99,0.59,1.97,0.46,2.96
			c-0.07,0.07,0,0.13,0,0.2c0.07,0,0.13,0.07,0.2,0.07C275.27,33.73,275.33,33.6,275.4,33.47z M289.07,24.4
			c-0.13-0.13,0.79-0.85,0.79-1.31c0.07-0.33,0.13-0.39,0.39-0.39c0.2,0,0.33-0.07,0.66-0.07c-0.33-0.26-0.53-0.39-0.72-0.53
			c0.79-0.92,2.04-0.79,2.3,0.33c0.2,0.66,0.72,0.99,0.85,1.58c0,0.2,0,0.46-0.13,0.59c-0.07,0.13-0.33,0.2-0.53,0.13
			c-0.33-0.07-3.75,3.22-4.01,3.22c-0.46-0.07,0.46-1.91,0-1.84C288.68,25.84,289.07,24.73,289.07,24.4z"/>
		<path class="st1" d="M302.13,47.73c-0.2,0-0.46,0.66-0.59,0.66v-0.66c0.07-0.07,0.2-0.13,0.26-0.2c-0.26,0.2-0.72,0.33-0.79,0.26
			c-0.26-0.13-0.66,0.85-0.72,0.59c0-0.39,0.99-2.43,0.92-2.83c-0.2-0.79,0-1.51,0.13-2.3c0.26-1.64,0.53-3.29,0.79-4.86
			c0-0.2-0.07-0.33-0.07-0.53c0-0.53,0.07-0.99,0.13-1.51c0.13-1.05,0.33-2.1,0.46-3.15c0.07-0.85,0.2-1.71,0.26-2.56
			c0.07-0.66,0.07-1.38,0.13-2.04c0.07-1.12,0.26-2.17,0.39-3.22c0.07-0.53,0.2-0.99,0.33-1.45c0.07-0.13,0.2-0.2,0.33-0.26
			c0.26,0,0.53,0,0.72,0c0.26,0,0.46,0.13,0.66,0.2c0.46,0.07,0.53,0.46,0.46,0.85c-0.13,0.72-0.26,1.51-0.33,2.23
			c0,0.39,0.07,0.85,0.13,1.31c0,0.79-0.07,1.64-0.07,2.5s0,1.71,0,2.63c0.07,0,0.07,0,0.07,0.07c0.2-0.2,0.46-0.39,0.59-0.59
			c0.99-1.45,2.17-2.69,3.48-3.81c0.99-0.85,2.04-1.77,3.15-2.56c0.66-0.53,1.45-0.79,2.17-1.18c0.39-0.13,0.72-0.26,1.05-0.39
			c0.2-0.07,0.33-0.07,0.53-0.13c0,0.07,0,0.07,0,0.13c-0.07,0.07-0.2,0.2-0.33,0.33c-0.07,0.07-0.2,0.13-0.26,0.26
			c-0.59,0.72-1.12,1.51-1.71,2.17c-0.66,0.72-1.38,1.38-2.1,2.04c-0.13,0.2-0.33,0.33-0.46,0.46c-0.2,0.13-0.46,0.26-0.72,0.39
			c-0.07,0.07-0.2,0.13-0.26,0.26c-0.92,0.92-1.77,1.97-2.23,3.22c-0.39,0.92-0.72,1.84-0.99,2.83c-0.33,0.92-0.53,1.91-0.79,2.83
			c-0.46,1.58-0.92,3.15-1.38,4.67c-0.2,0.79-0.39,1.51-0.59,2.3c-0.13,0.26-0.33,1.51-0.39,1.77c-0.2,0.46-0.59-0.13-0.99,0
			c-0.33,0-0.66-0.33-0.99-0.33c-0.07,0-0.13,0-0.2,0.07c-0.13,0-0.2,0.07-0.33,0.2C302.07,48.06,302.07,47.93,302.13,47.73z"/>
		<path class="st1" d="M312.25,41.16c1.12,0.79,2.3,1.58,3.48,2.3c0.2,0.13,0.39,0.13,0.53,0.13c1.38,0,2.63,0.13,3.88,0.53
			c0.26,0.07,0.53,0,0.72,0c1.18-0.07,2.23-0.07,3.29-0.13c0.92-0.13,1.38-0.53,1.45-1.38c0.46-2.04-0.72-4.01-2.5-5.13
			c-1.58-0.92-3.02-1.25-4.73-1.71c-2.89-0.72-5.06-3.75-3.68-6.51c0.85-1.64,2.37-2.83,4.34-3.02c0.2,0,0.46-0.13,0.72-0.26
			c0.92-0.53,1.84-0.39,2.83-0.26c0.39,0.07,0.85,0,1.31,0.13c0.33,0.07,0.66,0.26,0.92,0.46c1.51,1.51,2.1,3.35,2.3,5.39
			c0,0.39-0.07,0.79-0.2,1.12c0,0.13-0.26,0.33-0.39,0.33c-0.13,0-0.33-0.13-0.39-0.26c-0.2-0.39-0.46-0.72-0.53-1.12
			c-0.07-1.05-0.85-1.58-1.71-1.84c-2.3-0.53-4.47-0.26-6.44,0.99c-0.26,0-0.46,0.33-0.72,0.66c0.53,0.26,0.92,0.53,1.31,0.72
			c1.51,0.66,3.09,1.25,4.47,2.1c2.5,1.45,4.21,3.68,4.8,6.57c0.39,1.84,0.2,3.62-0.72,5.13c-0.66,1.05-1.45,1.91-2.83,2.17
			c-3.42,0.66-6.51-0.13-9.4-2.04c-0.59-0.53-1.25-1.31-1.31-2.04c-0.07-0.72-0.53-0.72-0.79-1.12c-0.59-1.05-1.58-1.84-1.58-3.29
			C311.2,40.3,311.66,40.7,312.25,41.16z"/>
		<path class="st1" d="M331.45,26.04c0.59,0,0.59,0.85,1.18,0.85c0.07-0.26,0.13-0.39,0.26-0.66c0.66,0.53,1.25,1.05,1.84,1.58
			c0.26,0.26,0.26,0.72,0.26,1.12c-0.07,0.53-0.13,1.05-0.2,1.58c0.39,0,0.39,0.26,0.39,0.59c0.07,0.79-0.13,1.51-0.26,2.3
			c-0.2,0.66-0.2,1.38-0.33,2.04c-0.13,0.66-0.33,1.38-0.53,2.1c-0.26,1.12-0.66,2.23-0.59,3.42c0.07,0.92-0.2,1.77-0.53,2.56
			c-0.33,0.72-0.53,1.45-0.46,2.23c0,0.85-0.39,1.45-1.05,1.91c-0.26,0.2-0.46,0.39-0.66,0.59c-0.33,0.26-0.59,0.26-0.99,0
			c-0.07,0.46-0.2,0.85-0.26,1.18c-0.13,0.13-0.2,0.2-0.26,0.26c-0.13,0.13-0.2,0.33-0.33,0.33c-0.79,0.26-1.25,0.79-1.77,1.31
			c-0.13,0.13-0.13,0.33-0.2,0.53c-0.07,0.07-0.2,0.2-0.33,0.33c-0.07-0.46,0-0.72,0.2-0.99c0.13-0.13,0.2-0.33,0.2-0.53
			c0.13-0.66,0.13-1.31,0.2-1.97c0.13-0.53,0.26-0.99,0.39-1.51c0.07-0.33,0.07-0.66,0.13-0.99c0.07-0.59,0.13-1.18,0.26-1.71
			c0.2-0.79,0.53-1.51,0.59-2.3c0.07-0.92,0.26-1.84,0.39-2.76c0.2-0.79,0.33-1.64,0.46-2.43c0.2-1.05,0.33-2.1,0.53-3.22
			c0,0,0,0,0-0.07c-0.26-0.59,0.07-1.18,0.2-1.77c0.13-0.72,0.33-1.45,0.53-2.24c0.13-0.79,0.26-1.58,0.39-2.43
			c0-0.07,0.07-0.13,0.07-0.13c0.33-0.26,0.2-0.39,0-0.59C331.31,26.37,331.38,26.24,331.45,26.04z M332.23,20.39
			c0.13-0.26,0.26-0.59,0.33-0.85c0.07-0.26,0.07-0.59,0-0.85c0-0.59,0.13-1.12,0.46-1.58c0.13-0.2,0.13-0.46,0.2-0.59
			c0.33-0.72,0.85-1.25,1.45-1.71c0.13-0.07,0.26-0.2,0.33-0.26c0.13-0.26,0.33-0.2,0.59-0.13c0.33,0.07,0.66,0.13,0.92,0.13
			c0.46,0.07,0.85,0.33,0.92,0.66c0.2,0.39,0.39,0.99,0,1.45c-0.72,0.85-1.51,1.77-2.23,2.63c-0.39,0.46-0.72,0.79-1.12,1.25
			c-0.26,0.33-0.59,0.53-1.05,0.53c-0.33,0.07-0.66,0.13-1.05,0.2c0,0-0.07-0.07-0.07-0.13C331.97,20.85,332.1,20.65,332.23,20.39z"
			/>
		<path class="st1" d="M337.86,23.35c1.18-0.26,2.23-0.39,3.35-0.53c0.85-0.13,0.72-0.2,1.51-0.33c0.59-0.07,1.12-0.13,1.58-0.2
			c0.2-0.07,0.39-0.2,0.39-0.33c0.2-0.72,0.39-1.58,0.46-2.37c0.13-0.66,0.33-1.18,0.46-1.77c0.07-0.26,0.2-0.46,0.33-0.59
			c0.13-0.72,0.33-1.45,0.72-2.04c0.13-0.46,0.53-0.92,0.92-1.31c0.13-0.33,1.05-0.39,1.58-0.26c0.46,0.13-0.07,0.26,0.46,0.26
			c0.26,0.13,0.39,0.2,0.39,0.39c0,0.39,0.07,0.79,0.07,1.12c0.07,0.26,0.39,0.46,0.39,0.85c0.13,0.59,0,1.25,0,1.91
			c-0.07,0.33-0.13,0.66-0.2,0.99c-0.13,0.39,0.66,0.66,0.66,1.05c-0.07,0.39-0.13,0.79-0.13,1.25c0.13,0,0.33,0.07,0.66,0.13
			c-0.33,0.07-0.46,0.13-0.59,0.13c0,0.07,0,0.07,0.07,0.13c0.39-0.07,0.85-0.07,1.31-0.13c1.31-0.2,1.18-0.33,2.56-0.46
			c0.13,0,0.26,0,0.33-0.13c0.33-0.07,0.79-0.2,1.05,0c0.07,0.13,0.26,0,0.39,0c0.33-0.07,0.72-0.2,1.05-0.26c0,0,0,0,0.13-0.07
			c0.46-0.46,1.25-0.2,1.91-0.2c0.66-0.07,1.38-0.07,2.04-0.13c0.13,0,0.33,0.07,0.46,0.07c-0.07,0.07-0.07,0.13-0.13,0.26
			c-0.07,0.07-0.07,0.2-0.13,0.33c-0.07,0.13-0.13,0.26-0.26,0.26c-0.99,0.39-1.97,0.85-2.96,1.25c-0.92,0.39-1.84,0.72-2.76,1.12
			c-1.45,0.59-1.18,1.12-2.83,1.38c-0.59,0.07-2.1,0.26-2.69,0.33c-0.26,0.07-0.53-0.07-0.72-0.13c-0.39-0.26-0.46-0.2-0.53,0.07
			c-0.2,0.66-0.53,1.31-0.72,1.97c-0.2,0.92-0.33,1.91-0.53,2.83c-0.2,0.85-0.46,1.71-0.66,2.5c-0.13,0.39-0.26,0.99-0.39,1.38
			c-0.07,0.2-0.13,0.53-0.26,0.72c-0.07,0.13-0.2,0.26-0.2,0.39c-0.13,0.59-0.26,1.25-0.39,1.84c-0.26,1.05,0.07,2.1-0.46,3.09
			c-0.07,0.13,0.72,0.26,0.66,0.46c-0.07-0.13-0.07-0.2-0.07-0.26c-0.07,0-0.13,0-0.13,0c-0.13,0.46-0.33,0.99-0.53,1.45
			c-0.13,0-0.2,0-0.26,0c0.07-0.26,0.13-0.46,0.26-0.66c0.07-0.46,0.07-0.92,0.13-1.31c0.07-0.39,0.26-0.85,0.33-1.25
			c0.07-0.2,0.2-0.46,0.26-0.59c0-0.13-0.07-0.33-0.2-0.46c-0.07-0.13-0.33-0.13-0.39,0.13c-0.13,0.46-0.33,1.05-0.46,1.51
			c-0.13,0.66-0.26,1.25-0.39,1.91c-0.2,0.85-0.39,1.71-0.59,2.43c-0.13,0.46-0.33,0.92-0.53,1.38c-0.13,0.46-0.26,0.92-0.46,1.38
			c-0.72-0.07-0.85,0-0.92,0.59c-0.07,0.26-0.13,0.46-0.26,0.72c0-0.72,0.2-1.45-0.13-2.23c-0.07,0-0.07,0-0.07,0
			c-0.07,0.13-0.13,0.2-0.13,0.26c-0.07,0.59-0.2,0.99-0.2,1.58c0,0.26,0.07,0.72,0.2,1.05c0.07,0.39-0.39,0.72-0.72,0.92
			c-0.39,0.2-0.92,0-0.99-0.39c-0.07-0.13-0.07-0.33-0.07-0.46c0.13-0.07,0.33-0.07,0.53-0.13c0.2-0.07,0.46-0.13,0.2-0.39
			c-0.13-0.07-0.07-0.26-0.07-0.39c0.07-0.66,0.07-1.18,0.13-1.77c0-0.26,0.26-0.46,0.26-0.66c0-0.59,0-1.25,0.07-1.84
			c0.07-0.33,0.46-0.79,0.53-1.12c0.2-0.72,0.39-1.51,0.39-2.23c0.07-0.79,0.26-1.51,0.53-2.24c0.13-0.39,0.2-0.92,0.33-1.45
			c0-0.13,0-0.2,0.07-0.26c0.07-0.2,0.2-0.53,0.2-0.72c0.13-0.72,0.2-1.31,0.26-2.04c0.07-0.46,0.13-0.92,0.2-1.45
			c0.07-0.53,0.2-0.99,0.33-1.58c0.07-0.26,0-0.53-0.13-0.92c-0.13-0.39-0.07-0.92,0-1.38c0-0.59,0.13-1.12,0.2-1.71
			c0-0.2-0.13-0.26-0.39-0.26c-1.71,0.33-2.43,0.26-4.01,0.2c-0.72,0-1.51-0.2-2.1-0.33c-0.46-0.07-0.72-0.26-0.99-0.59
			c-0.33-0.2-0.53-0.33-0.85-0.46c-0.33-0.13-0.59-0.53-0.85-0.66c0-0.07,0.07-0.07,0.07-0.13
			C335.82,23.61,336.81,23.48,337.86,23.35z M342.33,42.67c0.13-0.13,0.26-0.26,0.33-0.46c0.26-1.31,0.53-2.63,0.79-3.88
			C342.52,39.71,342.33,41.22,342.33,42.67z M343.25,37.08c0.92-0.72,1.25-1.51,1.05-2.43c-0.46,0.72-0.79,1.58-1.18,2.37
			C343.18,37.02,343.25,37.08,343.25,37.08z M347.06,28.93c-1.18,1.84-1.12,3.88-1.91,5.85c0.2,0,0.26,0,0.33,0
			c0.59-1.91,1.45-3.88,1.84-5.78C347.19,29,347.13,29,347.06,28.93z M346.73,36.29c-0.33-0.33-0.07-1.71,0.46-2.43
			C346.99,34.65,346.86,35.44,346.73,36.29z"/>
		<path class="st1" d="M388.12,29c-0.59-0.99-1.64-1.18-2.69-1.18c-0.99,0-1.97,0.07-2.96,0.26c-0.79,0.2-1.58,0.53-2.3,0.92
			c-0.59,0.26-0.59,1.05-0.07,1.51c0.72,0.59,1.58,1.12,2.37,1.64c1.64,1.05,3.48,1.84,4.73,3.42c1.05,1.18,1.91,2.5,1.97,4.14
			c0,1.18,0.13,2.37,0.07,3.55c0,2.04-1.18,3.42-2.89,4.34c-0.46,0.26-0.99,0.39-1.45,0.53c-0.66,0.2-1.25,0.39-1.91,0.46
			c-0.99,0.13-1.91,0-2.83-0.46c-0.66-0.33-1.31-0.46-1.97-0.72c-0.39-0.2-0.72-0.39-1.12-0.59c0.13-0.26,0.26-0.46,0.39-0.66
			c-0.39-0.26-0.79-0.59-1.18-0.85c-0.33-0.26-0.79-0.46-0.46-1.05c0.07-0.07,0-0.26-0.07-0.39c-0.46-0.66-0.85-1.31-1.31-2.04
			c-0.13-0.2-0.2-0.39-0.26-0.59c0.07-0.07,0.07-0.07,0.13-0.13c0.26,0.13,0.59,0.33,0.85,0.46c0.99,0.66,2.04,1.31,3.02,1.84
			c0.59,0.39,1.25,0.53,1.97,0.13c0.13-0.07,0.46,0.07,0.72,0.07c1.77-0.13,3.55-0.2,5.32-0.33c0.99-0.13,1.51-0.92,1.45-1.91
			c-0.07-1.05,0.26-1.38-0.07-2.56c-0.13-0.46-0.85-1.97-1.38-2.23c-1.45-0.72-2.63-0.59-4.07-1.38c-0.99-0.53-1.97-0.99-2.83-1.64
			c-1.97-1.51-2.37-3.48-1.84-5.85c0.13-0.53,0.72-0.99,1.18-1.31c1.38-0.79,2.89-1.18,4.47-1.45c0.79-0.13,1.58-0.33,2.37-0.39
			c0.39,0,0.79,0.13,1.18,0.26c0.46,0.2,0.92,0.46,1.31,0.72c0.79,0.39,1.12,1.18,1.25,1.91c0.2,0.79,0.13,1.58,0.2,2.43
			C388.71,29.72,388.38,29.53,388.12,29z M377.87,46.68c0.46,0.2,0.92,0.39,1.31,0.59c0.07-0.13,0.07-0.2,0.13-0.33
			c-0.46-0.13-0.85-0.33-1.31-0.53C377.94,46.48,377.94,46.61,377.87,46.68z"/>
	</g>
</g>
</svg>
